<?xml version="1.0" encoding="UTF-8"?><svg id="a" xmlns="http://www.w3.org/2000/svg" viewBox="0 0 876.2 374.54"><path d="m227.96,193.76c0,4.33-3.54,7.87-7.87,7.87h-82.61c-4.33,0-7.87-3.54-7.87-7.87s3.54-7.87,7.87-7.87h82.61c4.33,0,7.87,3.54,7.87,7.87Z" style="fill:#fff;"/><path d="m247.49,57.18c-3.73-.13-7.42.1-10.97.65-.04,0-.07-.02-.07-.06h0c0-28.42-20.56-53.13-48.69-57.16-35.31-5.05-65.58,22.21-65.58,56.54,0,.36,0,.69.02,1.03-3.69-.71-7.5-1.07-11.39-1.03-31.24.3-56.65,26.02-56.6,57.24.07,30.36,23.79,55.14,53.69,56.92,1.15.07,2.3.1,3.45.1h51.89c5.08,0,9.19-4.11,9.19-9.18v-31.05s.03-.07.07-.07h11.67s.07.03.07.07v31.7c.34,4.77,4.3,8.53,9.16,8.53h51.93c1,0,1.98-.02,2.96-.07,29.97-1.52,53.84-26.14,54.16-56.43.34-30.81-24.16-56.57-54.96-57.73Zm-88.21,60.72s-.03.07-.07.07h-6.4c-3.23-.12-5.91-2.83-5.99-6.06-.1-3.52,2.73-6.4,6.23-6.4,1.35,0,2.61.42,3.62,1.17,1.57,1.12,2.61,2.98,2.61,5.06v6.17Zm88.21,37.7c-.71.03-1.44.05-2.17.05h-43.12c-1.17,0-2.12-.9-2.2-2.05v-22.75s.04-.07.07-.06c1.15.21,2.34.32,3.55.32.71,0,1.42-.03,2.15-.12,9.35-1.02,16.69-8.79,17.2-18.18.63-11.19-8.28-20.47-19.35-20.47-6.16,0-11.65,2.88-15.2,7.37-2.62,3.3-4.18,7.48-4.18,12.02v6.17s-.03.07-.07.07h-11.67s-.07-.03-.07-.07v-6.17c0-4.54-1.56-8.72-4.18-12.02-3.69-4.67-9.5-7.6-15.97-7.35-10.33.39-18.64,9.06-18.62,19.4.02,10.48,8.33,19,18.73,19.35h.66c1.21,0,2.4-.11,3.55-.32.04,0,.07.02.07.06v22.78c-.08,1.13-1.03,2.01-2.18,2.01h-43.14c-.85,0-1.66-.02-2.42-.07h-.08c-21.79-1.3-38.87-19.44-38.87-41.29s18.57-41.38,41.38-41.38c2.66,0,5.3.25,7.86.74l10.12,1.96,2.1.41s.07,0,.08.02c3.52.07,6.45-2.59,6.79-6.01v-.02l-.05-1.71-.29-10.57c-.02-.2-.02-.39-.02-.59,0-22.81,18.56-41.38,41.38-41.38s41.36,18.57,41.36,41.38v.12l-.39,9.28-.17,3.58s0,.01,0,.02c.65,2.8,2.98,4.95,5.88,5.29,0,0,.01,0,.02,0l1.73-.29c.05,0,.08-.02.14-.02l1.74-.27,9.24-1.46c2.12-.32,4.28-.49,6.43-.49,22.82,0,41.38,18.56,41.38,41.38s-17.24,40.19-39.21,41.31Zm-50.03-37.64s-.07-.03-.07-.07v-6.17c0-2.08,1.03-3.94,2.61-5.06,1.08-.78,2.42-1.22,3.86-1.17,3.25.12,5.93,2.83,5.99,6.06.1,3.52-2.73,6.4-6.23,6.4h-6.17Z" style="fill:#fff;"/><path d="m122.24,358.87L40.48,230.48v119.72c0,11.18-9.06,20.24-20.24,20.24h0c-11.18,0-20.24-9.06-20.24-20.24v-158.59c0-16.32,13.23-29.55,29.55-29.55h0c10.31,0,19.89,5.34,25.31,14.11l74.13,119.9v-59.63c0-11.27,9.13-20.4,20.4-20.4h0c11.27,0,20.4,9.13,20.4,20.4v107.56c0,14.6-11.84,26.44-26.44,26.44h0c-8.55,0-16.51-4.37-21.1-11.58Z" style="fill:#fff;"/><path d="m286.83,351.15v-2.35c-10.46,17.16-26.47,25.73-48.02,25.73-7.74,0-14.8-1.36-21.18-4.08-6.38-2.72-11.88-6.59-16.48-11.61-4.6-5.02-8.21-10.98-10.83-17.89-2.62-6.9-3.92-14.64-3.92-23.22v-81.28c0-11.27,9.13-20.4,20.4-20.4h0c11.27,0,20.4,9.13,20.4,20.4v75c0,19.25,8.68,28.87,26.05,28.87,10.46,0,18.36-3.29,23.69-9.89,5.34-6.59,8-15.01,8-25.26v-68.88c0-11.18,9.06-20.24,20.24-20.24h0c11.18,0,20.24,9.06,20.24,20.24v114.86c0,10.66-8.64,19.3-19.3,19.3h0c-10.66,0-19.3-8.64-19.3-19.3Z" style="fill:#fff;"/><path d="m343.32,351.3v-171.66c0-11.09,8.99-20.08,20.08-20.08h0c11.09,0,20.08,8.99,20.08,20.08v56.49c11.5-16.11,26.78-24.16,45.82-24.16,10.04,0,18.99,1.94,26.83,5.81,7.85,3.87,14.49,9.37,19.93,16.48,5.44,7.12,9.57,15.53,12.4,25.26,2.82,9.73,4.24,20.45,4.24,32.17,0,12.97-1.68,24.59-5.02,34.83-3.35,10.25-7.95,18.94-13.81,26.05-5.86,7.12-12.92,12.55-21.18,16.32-8.27,3.77-17.21,5.65-26.83,5.65-19.25,0-33.58-7.63-42.99-22.91h0c-.17,10.45-8.69,18.83-19.15,18.83h-1.25c-10.58,0-19.15-8.57-19.15-19.15Zm73.12-10.04c10.25,0,18.62-4.34,25.11-13.02,6.48-8.68,9.73-19.93,9.73-33.74,0-31.8-11.72-47.7-35.15-47.7s-34.21,16.74-34.21,50.21c0,13.18,3.3,23.85,9.89,32.01,6.59,8.16,14.8,12.24,24.64,12.24Z" style="fill:#fff;"/><path d="m638.94,246.96c-2.3-7.63-6.02-14.02-11.13-19.14s-11.94-9.05-20.4-11.78c-8.48-2.71-18.78-4.07-30.92-4.07s-22.82,1.32-31.39,3.91c-8.58,2.64-15.52,6.33-20.87,11.15-5.33,4.82-9.21,10.56-11.61,17.25l-.07.2c-3.78,10.61,4.09,21.77,15.36,21.77h3.84c7.64,0,14.76-4.12,18.38-10.85,1.16-2.15,2.57-4.08,4.23-5.77,4.09-4.19,10.84-6.29,20.24-6.29,7.95,0,14.28,1.42,18.98,4.25,4.72,2.81,7.06,6.75,7.06,11.76,0,5.45-1.77,9.36-5.33,11.76-3.56,2.42-10.46,4.35-20.71,5.82-10.25,1.46-19.71,3.09-28.4,4.86-8.67,1.77-16.15,4.54-22.44,8.32-6.27,3.76-11.19,8.93-14.73,15.54-3.56,6.59-5.35,15.42-5.35,26.51,0,12.55,4.13,22.74,12.41,30.59,8.26,7.85,21.28,11.78,39.06,11.78,10.46,0,19.67-1.63,27.62-4.88,3.97-1.61,7.55-3.5,10.74-5.66.77-.53,1.51-1.08,2.24-1.63.08-.04.16-.1.24-.18.63-.49,1.24-.98,1.83-1.51.12-.1.24-.2.35-.3,1.32-1.18,2.56-2.42,3.72-3.72l.02-.02c5.09-5.88,8.14-11.29,8.14-11.29h19.83c6.91,0,12.5-5.6,12.5-12.5v-60c0-9.62-1.14-18.25-3.44-25.88Zm-37.67,64.81c0,4.6-.98,8.93-2.97,13.02-1.99,4.07-4.6,7.63-7.85,10.66-3.25,3.05-7.12,5.45-11.61,7.22-4.5,1.79-9.38,2.68-14.59,2.68-13.18,0-19.77-5.76-19.77-17.27,0-6.69,2.18-11.82,6.59-15.38,4.39-3.54,12.43-6.47,24.15-8.77,7.53-1.48,13.28-2.83,17.27-4.09,3.97-1.24,7-2.91,9.09-5.02l-.31,16.96Z" style="fill:#fff;"/><path d="m634.51,358.79h-17.31c-4.33,0-7.87,3.54-7.87,7.87s3.54,7.87,7.87,7.87h17.31c4.33,0,7.87-3.54,7.87-7.87s-3.54-7.87-7.87-7.87Z" style="fill:#fff;"/><path d="m661.51,205.09c0-13.61,7.71-22.78,19.76-22.78s19.76,9.17,19.76,22.78v93.31c0,27.23,13.25,39.45,35.9,39.45s35.9-12.22,35.9-39.45v-93.31c0-13.61,7.71-22.78,19.76-22.78s19.76,9.17,19.76,22.78v89.7c0,55.01-29.39,79.74-75.41,79.74s-75.41-24.73-75.41-79.74v-89.7Z" style="fill:#fff;"/><path d="m836.48,205.22c0-13.69,7.75-22.9,19.86-22.9s19.86,9.22,19.86,22.9v146.42c0,13.69-7.75,22.9-19.86,22.9s-19.86-9.22-19.86-22.9v-146.42Z" style="fill:#fff;"/></svg>